<svg xmlns="http://www.w3.org/2000/svg" version="1.1" xmlns:xlink="http://www.w3.org/1999/xlink" xmlns:svgjs="http://svgjs.dev/svgjs" width="1000" height="750" viewBox="0 0 1000 750"><rect width="1000" height="750" fill="#ffbe79"></rect><g transform="matrix(0.5770750988142292,0,0,0.5770750988142292,211.972547139247,83.23643724696356)"><svg viewBox="0 0 244 247" data-background-color="#ffbe79" preserveAspectRatio="xMidYMid meet" height="1012" width="1000" xmlns="http://www.w3.org/2000/svg" xmlns:xlink="http://www.w3.org/1999/xlink"><g id="tight-bounds" transform="matrix(1,0,0,1,-0.21567999999999188,-0.09999999999999432)"><svg viewBox="0 0 244.43135999999998 247.2" height="247.2" width="244.43135999999998"><g><svg></svg></g><g><svg viewBox="0 0 244.43135999999998 247.2" height="247.2" width="244.43135999999998"><g transform="matrix(1,0,0,1,0,49.90210251256282)"><svg viewBox="0 0 244.43135999999998 147.39579497487435" height="147.39579497487435" width="244.43135999999998"><g><svg viewBox="0 0 244.43135999999998 147.39579497487435" height="147.39579497487435" width="244.43135999999998"><g><svg viewBox="0 0 244.43135999999998 147.39579497487435" height="147.39579497487435" width="244.43135999999998"><g><svg viewBox="0 0 244.43135999999998 147.39579497487435" height="147.39579497487435" width="244.43135999999998"><g><svg viewBox="0 0 244.43135999999998 147.39579497487435" height="147.39579497487435" width="244.43135999999998"><g><svg viewBox="0 0 244.43135999999998 147.39579497487435" height="147.39579497487435" width="244.43135999999998"><g transform="matrix(1,0,0,1,0,0)"><svg width="244.43135999999998" viewBox="4.449999809265137 -35.75 59.70000076293945 36" height="147.39579497487435" data-palette-color="#ba3b0a"><path d="M7.95 0L4.45 0 4.45-35.5 19.15-35.5Q21.45-35.5 23.38-34.55 25.3-33.6 26.7-31.98 28.1-30.35 28.9-28.38 29.7-26.4 29.7-24.35L29.7-24.35Q29.7-21.45 28.43-18.88 27.15-16.3 24.85-14.7 22.55-13.1 19.45-13.1L19.45-13.1 7.95-13.1 7.95 0ZM7.95-32.4L7.95-16.2 19.3-16.2Q21.4-16.2 22.95-17.35 24.5-18.5 25.35-20.35 26.2-22.2 26.2-24.35L26.2-24.35Q26.2-26.55 25.2-28.4 24.2-30.25 22.58-31.33 20.95-32.4 19-32.4L19-32.4 7.95-32.4ZM49.8 0.25L49.8 0.25Q46.25 0.25 43.2-1.28 40.15-2.8 37.9-5.4 35.65-8 34.42-11.2 33.2-14.4 33.2-17.8L33.2-17.8Q33.2-21.4 34.42-24.63 35.65-27.85 37.85-30.35 40.05-32.85 43.05-34.3 46.05-35.75 49.6-35.75L49.6-35.75Q54.85-35.75 58.15-33.6 61.45-31.45 63.15-28L63.15-28 60.45-26.2Q58.75-29.5 55.9-31.05 53.05-32.6 49.55-32.6L49.55-32.6Q46.6-32.6 44.22-31.35 41.85-30.1 40.15-28 38.45-25.9 37.57-23.25 36.7-20.6 36.7-17.75L36.7-17.75Q36.7-14.75 37.7-12.08 38.7-9.4 40.55-7.33 42.4-5.25 44.82-4.08 47.25-2.9 50.05-2.9L50.05-2.9Q53.3-2.9 56.2-4.53 59.1-6.15 61.75-9.55L61.75-9.55 61.75-5.85Q56.7 0.25 49.8 0.25ZM61.2 0L61.2-14.75 53.3-14.75 53.3-17.45 64.15-17.45 64.15 0 61.2 0Z" opacity="1" transform="matrix(1,0,0,1,0,0)" fill="#ba3b0a" class="undefined-text-0" data-fill-palette-color="primary" id="text-0"></path></svg></g></svg></g></svg></g></svg></g><g></g></svg></g></svg></g></svg></g><path d="M0 43.902L0 1 244.431 1 244.431 43.902 231.139 43.902 231.139 14.292 13.292 14.292 13.292 43.902 0 43.902M0 203.298L0 246.2 244.431 246.2 244.431 203.298 231.139 203.298 231.139 232.908 13.292 232.908 13.292 203.298 0 203.298" fill="#ba3b0a" stroke="transparent" data-fill-palette-color="primary"></path></svg></g><defs></defs></svg><rect width="244.43135999999998" height="247.2" fill="none" stroke="none" visibility="hidden"></rect></g></svg></g></svg>